# xmcd CD database file
#
# Track frame offsets:
#	150
#	15473
#	27451
#	38750
#	55412
#	69375
#	81003
#	92821
#	107368
#	120148
#	131799
#	144162
#	157147
#	172416
#	183513
#	195557
#	210499
#	225205
#	235499
#	246593
#
# Disc length: 3562 seconds
#
# Revision: 0
# Processed by: cddbd v1.5.2PL0 Copyright (c) Steve Scherf et al.
# Submitted via: CDex 1.79
#
DISCID=0e0de814
DTITLE=Frank Sinatra - New York, New York
DYEAR=2019
DGENRE=Jazz
TTITLE0=Frank Sinatra - Theme From New York, New York - Remastered 2008
TTITLE1=Frank Sinatra, Nancy Sinatra - Somethin' Stupid - 2008 Remastered
TTITLE2=Frank Sinatra - My Baby Just Cares For Me - Album
TTITLE3=Frank Sinatra - I've Got You Under My Skin - Remastered 1998
TTITLE4=Frank Sinatra - That's Life - Remastered 2008
TTITLE5=Frank Sinatra - You Are The Sunshine Of My Life
TTITLE6=Frank Sinatra - Love And Marriage - Remastered 2009
TTITLE7=Frank Sinatra, Antonio Carlos Jobim - The Girl From Ipanema - 2008 Remastered
TTITLE8=Frank Sinatra - Blue Moon
TTITLE9=Frank Sinatra - Strangers In The Night - Remastered 2008
TTITLE10=Frank Sinatra - Nice 'N' Easy - 1999 Remastered
TTITLE11=Frank Sinatra - I Get A Kick Out Of You - Remastered 1998
TTITLE12=Frank Sinatra - Sentimental Journey
TTITLE13=Frank Sinatra feat. Count Basie And His Orchestra - Fly Me To The Moon - Remastered 2008
TTITLE14=Frank Sinatra - On The Sunny Side Of The Street
TTITLE15=Frank Sinatra - Moon River
TTITLE16=Frank Sinatra - As Time Goes By
TTITLE17=Frank Sinatra - I Love You - 1962 Version
TTITLE18=Frank Sinatra feat. Count Basie And His Orchestra - The Good Life - Remastered Album Version
TTITLE19=Frank Sinatra - My Way - Remastered 2008
EXTD=YEAR: 2019
EXTT0=
EXTT1=
EXTT2=
EXTT3=
EXTT4=
EXTT5=
EXTT6=
EXTT7=
EXTT8=
EXTT9=
EXTT10=
EXTT11=
EXTT12=
EXTT13=
EXTT14=
EXTT15=
EXTT16=
EXTT17=
EXTT18=
EXTT19=
PLAYORDER=
